<?xml version="1.0" encoding="UTF-8" standalone="no"?>
<!-- Created with Inkscape (http://www.inkscape.org/) -->

<svg
   width="210mm"
   height="297mm"
   viewBox="0 0 210 297"
   version="1.1"
   id="svg43673"
   inkscape:version="1.2-beta (1b65182ce9, 2022-04-05)"
   sodipodi:docname="template.svg"
   xmlns:inkscape="http://www.inkscape.org/namespaces/inkscape"
   xmlns:sodipodi="http://sodipodi.sourceforge.net/DTD/sodipodi-0.dtd"
   xmlns="http://www.w3.org/2000/svg"
   xmlns:svg="http://www.w3.org/2000/svg">
  <sodipodi:namedview
     id="namedview43675"
     pagecolor="#ffffff"
     bordercolor="#666666"
     borderopacity="1.0"
     inkscape:pageshadow="2"
     inkscape:pageopacity="0.0"
     inkscape:pagecheckerboard="0"
     inkscape:deskcolor="#d1d1d1"
     inkscape:document-units="mm"
     showgrid="false"
     inkscape:zoom="0.76791526"
     inkscape:cx="285.18772"
     inkscape:cy="561.91096"
     inkscape:window-width="2400"
     inkscape:window-height="1261"
     inkscape:window-x="-9"
     inkscape:window-y="-9"
     inkscape:window-maximized="1"
     inkscape:current-layer="layer1" />
  <defs
     id="defs43670">
	    <marker
       style="overflow:visible"
       id="Arrow2Lend"
       refX="0"
       refY="0"
       orient="auto-start-reverse"
       inkscape:stockid="Arrow2Lend"
       inkscape:isstock="true"
       viewBox="0 0 9.2406117 6.9283007"
       markerWidth="9.240612"
       markerHeight="6.9283009"
       preserveAspectRatio="xMidYMid">
      <path
         transform="matrix(-0.8,0,0,-0.8,6,0)"
         d="M 8.7185878,4.0337352 -2.2072895,0.01601326 8.7185884,-4.0017078 c -1.7454984,2.3720609 -1.7354408,5.6174519 -6e-7,8.035443 z"
         style="fill:context-stroke;fill-rule:evenodd;stroke:context-stroke;stroke-width:0.625;stroke-linejoin:round"
         id="path5482" />
    </marker>
    <marker
       id="MountainArrow"
       refX="0"
       refY="0"
       orient="auto-start-reverse"
       inkscape:stockid="MountainArrow"
       inkscape:isstock="true"
       viewBox="0 0 11.176261 6.535344"
       markerWidth="11.176261"
       markerHeight="6.5353441"
       preserveAspectRatio="xMidYMid">
      <path
         style="fill:#ffffff;stroke:context-stroke;stroke-width:1"
         d="M 8,0 -2,5 0,0 Z"
         id="path857" />
    </marker>
    <marker
       id="MountainArrow2"
       refX="0"
       refY="0"
       orient="auto-start-reverse"
       inkscape:stockid="MountainArrow"
       inkscape:isstock="true"
       viewBox="0 0 11.176261 6.535344"
       markerWidth="11.176261"
       markerHeight="6.5353441"
       preserveAspectRatio="xMidYMid">
      <path
         style="fill:#ffffff;stroke:context-stroke;stroke-width:1"
         d="M 8,0 -2,-5 0,0 Z"
         id="path1087466" />
    </marker>
    <marker
       style="overflow:visible"
       id="EmptyTriangleOutL"
       refX="0"
       refY="0"
       orient="auto-start-reverse"
       inkscape:stockid="EmptyTriangleOutL"
       inkscape:isstock="true"
       viewBox="0 0 8.519053 9.8486161"
       markerWidth="8.5190525"
       markerHeight="9.8486156"
       preserveAspectRatio="xMidYMid">
      <path
         transform="matrix(0.8,0,0,0.8,2.5,0)"
         style="fill:#ffffff;fill-rule:evenodd;stroke:context-stroke;stroke-width:1pt"
         d="M 5.77,0 -2.88,5 V -5 Z"
         id="path8350" />
    </marker>
	 <symbol
       id="symbol7006">
      <path
         style="fill:none;stroke:#000000;stroke-width:0.3;stroke-linecap:butt;stroke-linejoin:bevel;stroke-miterlimit:2;stroke-dasharray:none;marker-end:url(#Arrow2Lend)"
         d="m -74.961646,52.047323 c 0.577761,-0.67573 1.458447,-1.17016 2.651341,-1.33907 0.681462,-0.0965 1.464811,-0.0868 2.351779,0.0561 1.266302,0.20395 2.121356,1.05575 2.098542,2.20081 -0.02524,1.26678 -1.10076,2.06188 -2.077618,2.07199 -0.888481,0.009 -2.087124,-0.53887 -2.097091,-2.01525 -0.01058,-1.5676 1.114234,-2.11328 2.096851,-2.22961 0.741255,-0.0878 1.432635,-0.141992 2.060471,-0.07588 0.40581,0.04274 1.352004,0.325473 1.812124,0.701275"
         id="path310567"
         sodipodi:nodetypes="csssssssc" />
    </symbol>
    <symbol
       id="symbol2775">
      <path
         id="path6909"
         style="opacity:1;fill:#ffffff;stroke:#000000;stroke-width:1.13386;stroke-linecap:butt;stroke-linejoin:round;stroke-miterlimit:10;stroke-dasharray:none"
         d="m -183.75977,174.125 v 4.98828 c -12.36976,0.57919 -15.064,5.85527 -17.5,9.6836 2.94226,-2.82224 7.475,-6.27257 17.5,-4.1504 v 5.03516 l 10.60743,-7.33594 z"
         transform="scale(0.26458333)" />
    </symbol>
    <symbol
       id="symbol5711">
      <path
         id="path4742"
         style="fill:#000000;stroke:none;stroke-width:0.755906;stroke-linecap:butt;stroke-linejoin:miter;stroke-miterlimit:2"
         d="M -222.93164,219.10938 V 224.25 h -9.75586 v 6.28125 h 9.75586 v 5.33203 l 11.24805,-8.0664 z"
         transform="scale(0.26458333)" />
    </symbol>
    <symbol
       id="symbol6911">
      <path
         id="rect6375"
         style="font-variation-settings:normal;opacity:1;fill:#ffffff;fill-opacity:1;fill-rule:evenodd;stroke:#000000;stroke-width:1.13386;stroke-linecap:butt;stroke-linejoin:miter;stroke-miterlimit:4;stroke-dasharray:none;stroke-dashoffset:0;stroke-opacity:1;paint-order:markers fill stroke;stop-color:#000000;stop-opacity:1"
         d="m -261.5,220.75 v 3.4375 h -19.6875 V 230 H -261.5 v 3.4375 l 10.9375,-6.3125 z"
         transform="scale(0.26458333)" />
    </symbol>
    <symbol
       id="symbol16057">
      <path
         style="fill:#ffffff;stroke:#000000;stroke-width:0.3;stroke-miterlimit:2"
         d="M -32,55.588104 V 57.5 c 0.021,1.883409 4.892238,3.376915 6.823372,3.422375 V 59.510479 C -27.357345,59.519079 -32,57.5 -32,55.588104 Z"
         id="path9772"
         sodipodi:nodetypes="ccccc" />
    </symbol>
    <symbol
       id="symbol16086">
      <path
         id="path6359"
         style="fill:#ffffff;stroke:#000000;stroke-width:1.13386;stroke-miterlimit:2"
         d="m -106.78125,194.60547 v 4.94726 c -3.12971,-0.0117 -12.8942,1.14165 -14.16406,10.54493 v 7.22461 c 0.90149,-3.55293 3.52779,-13.36609 14.16406,-12.4336 v 4.83399 l 10.607422,-7.55664 z"
         transform="scale(0.26458333)" />
    </symbol>
	    <symbol
       id="symbol21431-3">
      <path
         id="path19423-0"
         style="fill:#ffffff;stroke:#000000;stroke-width:1.13386;stroke-miterlimit:2;stroke-dasharray:none;stroke-dashoffset:0"
         d="m -162.51953,192.75586 3.7793,7.55859 -3.7793,7.5586 c 3.98355,-3.04421 8.02102,-4.11211 12.07031,-4.74414 v 4.74414 l 10.60742,-7.5586 -10.60742,-7.55859 v 4.85547 c -5.53017,-1.00273 -9.3636,-2.69928 -12.07031,-4.85547 z"
         transform="scale(0.26458333)" />
    </symbol>
	 <symbol
       id="g135099">
      <g
         id="g130015">
        <path
           style="display:inline;fill:#ffffff;stroke:none;stroke-width:0.3;stroke-miterlimit:4;stroke-dasharray:none"
           d="m -85.610186,62.164047 c 1.126748,-1.348677 1.528449,-2.815987 -0.03079,-4.544206 -1.319174,0.828178 -2.727767,1.544951 -4.171224,2.218289 1.522806,0.686816 2.886451,1.488948 4.202014,2.325917 z"
           id="path120985"
           sodipodi:nodetypes="cccc" />
        <path
           style="fill:none;stroke:#000000;stroke-width:0.3;stroke-miterlimit:4;stroke-dasharray:none"
           d="m -84.609349,56.890223 c -1.57098,1.218422 -3.40269,2.073256 -5.20285,2.947908 1.77233,0.820209 3.54047,1.823583 5.22485,3.024905"
           id="path97593"
           sodipodi:nodetypes="ccc" />
        <path
           style="display:inline;fill:#ffffff;stroke:#000000;stroke-width:0.3;stroke-miterlimit:4;stroke-dasharray:none"
           d="m -85.610186,62.164047 c 1.126748,-1.348677 1.528449,-2.815987 -0.03079,-4.544206"
           id="path98902"
           sodipodi:nodetypes="cc" />
        <path
           style="display:inline;fill:#000000;stroke:#000000;stroke-width:0.3;stroke-miterlimit:2;stroke-dasharray:none"
           d="m -85.196485,58.281889 c -0.747827,0.707086 -0.61636,2.498538 -0.02341,3.211195 l 0.375474,-0.587208 c -0.683343,-0.740743 -0.522916,-1.453484 -0.0706,-2.019483 z"
           id="path99485"
           sodipodi:nodetypes="ccccc" />
      </g>
      <path
         id="path134456"
         style="fill:#000000;stroke:none;stroke-width:0.3;stroke-miterlimit:2;stroke-dasharray:none"
         d="m -82.026001,57.929797 -0.0093,1.120345 h -1.733227 v 1.664498 h 1.719791 l -0.0083,1.031979 3.375505,-1.856735 z" />
      <path
         style="fill:#000000;stroke:none;stroke-width:0.3;stroke-miterlimit:2;stroke-dasharray:none"
         d="m -83.768323,59.050057 h 2.333379 0.06222"
         id="path134512" />
    </symbol>
    <symbol
       id="symbol28518">
      <circle
         style="font-variation-settings:normal;display:inline;opacity:1;fill:none;fill-opacity:1;fill-rule:evenodd;stroke:#000000;stroke-width:0.3;stroke-linecap:round;stroke-linejoin:miter;stroke-miterlimit:2;stroke-dasharray:none;stroke-dashoffset:0;stroke-opacity:1;paint-order:markers fill stroke;stop-color:#000000;stop-opacity:1"
         id="path7058"
         cx="805.54425"
         cy="105"
         r="2.0442531" />
    </symbol>
	 <symbol
       id="symbol578130">
      <path
         style="display:inline;fill:#000000;stroke:none;stroke-width:0.3;stroke-miterlimit:2.66667;stroke-dasharray:none;stroke-dashoffset:0"
         d="m 470.49999,182 a 0.49999,0.49999 0 0 1 -0.99998,0 0.49999,0.49999 0 0 1 0.99998,0 z"
         id="path573460"
         inkscape:path-effect="#path-effect573462"
         inkscape:original-d="m 470,182 h 0.49999"
         sodipodi:nodetypes="cc" />
    </symbol>
    <symbol
       id="symbol587658">
      <path
         style="fill:#000000;stroke:none;stroke-width:0.3;stroke-miterlimit:2.66667;stroke-dasharray:none;stroke-dashoffset:0"
         d="m 484.35434,169 a 0.35436,0.35436 0 0 1 -0.70872,0 0.35436,0.35436 0 0 1 0.70872,0 z"
         id="path587021"
         inkscape:path-effect="#path-effect587023"
         inkscape:original-d="m 483.99998,169 0.35429,0.007" />
    </symbol>
	  <symbol
       id="symbol450961">
      <path
         id="path439148"
         style="fill:#ffffff;stroke:#000000;stroke-width:0.3;stroke-miterlimit:2;stroke-dasharray:none;stroke-dashoffset:0"
         d="m 396.64926,255.32397 v 5.99975 c 1.05398,-0.80544 5.12223,-2.08799 6.1936,-2.25522 v 1.25522 l 2.80655,-1.99988 -2.80655,-1.99987 v 1.28467 c -1.46319,-0.2653 -5.47745,-1.71418 -6.1936,-2.28467 z"
         sodipodi:nodetypes="cccccccc" />
    </symbol>
	   <symbol
       id="symbol595978">
      <path
         style="fill:#b3b3b3;stroke:#000000;stroke-width:0.3;stroke-linejoin:bevel;stroke-miterlimit:2;stroke-dasharray:none;stroke-dashoffset:0"
         d="M 584.98362,379.50435 592,379.5"
         id="path593937"
         sodipodi:nodetypes="cc" />
      <path
         style="fill:none;stroke:#000000;stroke-width:0.3;stroke-linejoin:miter;stroke-miterlimit:2;stroke-dasharray:none;stroke-dashoffset:0"
         d="m 590.99998,378.5 1.00002,1 -1.00002,1"
         id="path594251"
         sodipodi:nodetypes="ccc" />
      <path
         style="fill:none;stroke:#000000;stroke-width:0.3;stroke-linejoin:bevel;stroke-miterlimit:2;stroke-dasharray:none;stroke-dashoffset:0"
         d="m 587.99997,380.5 v -2"
         id="path594600" />
    </symbol>
	    <symbol
       id="use250828">
      <path
         style="fill:#b3b3b3;stroke:#000000;stroke-width:0.3;stroke-linejoin:bevel;stroke-miterlimit:2;stroke-dasharray:none;stroke-dashoffset:0"
         d="M 584.98362,379.50435 592,379.5"
         id="path251895"
         sodipodi:nodetypes="cc" />
      <path
         style="fill:none;stroke:#000000;stroke-width:0.3;stroke-linejoin:miter;stroke-miterlimit:2;stroke-dasharray:none;stroke-dashoffset:0"
         d="m 590.99998,378.5 1.00002,1 -1.00002,1"
         id="path251897"
         sodipodi:nodetypes="ccc" />
      <path
         style="fill:none;stroke:#000000;stroke-width:0.3;stroke-linejoin:bevel;stroke-miterlimit:2;stroke-dasharray:none;stroke-dashoffset:0"
         d="m 587.99997,380.5 v -2"
         id="path251899" />
      <path
         style="fill:none;stroke:#000000;stroke-width:0.3;stroke-linejoin:bevel;stroke-miterlimit:2;stroke-dasharray:none;stroke-dashoffset:0"
         d="m 588.98358,378.50435 v 2"
         id="path252535" />
    </symbol>
</defs>
  <g
     inkscape:label="Layer 1"
     inkscape:groupmode="layer"
     id="layer1" />
</svg>
